<?xml version="1.0" encoding="utf-8"?>
<!-- Generator: Adobe Illustrator 23.0.3, SVG Export Plug-In . SVG Version: 6.00 Build 0)  -->
<svg version="1.1" id="Capa_1" xmlns="http://www.w3.org/2000/svg" xmlns:xlink="http://www.w3.org/1999/xlink" x="0px" y="0px"
	 viewBox="0 0 150 150" style="enable-background:new 0 0 150 150;" xml:space="preserve">
<style type="text/css">
	.st0{fill:#69D6F4;}
	.st1{fill:#674447;}
	.st2{opacity:0.6;}
	.st3{fill:#FFFFFF;}
	.st4{fill:#F4EAA6;}
	.st5{fill:#DDD76C;}
	.st6{fill:#EAE781;}
	.st7{fill:#D3BD20;}
	.st8{fill:#CCD1D9;}
	.st9{fill:#F0BC5E;}
	.st10{opacity:0.6;fill:#FFFFFF;}
</style>
<g>
	<g>
		<g>
			<path class="st0" d="M74.5,114.8c-14.5,0-28.2-5.7-38.5-15.9S20.1,74.9,20.1,60.4S25.7,32.2,36,21.9S60,6,74.5,6
				c30,0,54.4,24.4,54.4,54.4C128.9,90.4,104.5,114.8,74.5,114.8z"/>
			<path d="M74.5,10.2c27.7,0,50.2,22.5,50.2,50.2s-22.5,50.2-50.2,50.2S24.3,88.1,24.3,60.4S46.8,10.2,74.5,10.2 M74.5,1.8
				c-7.9,0-15.6,1.6-22.8,4.6C44.7,9.3,38.4,13.6,33,19s-9.6,11.7-12.6,18.6c-3,7.2-4.6,14.9-4.6,22.8s1.6,15.6,4.6,22.8
				c2.9,7,7.2,13.2,12.6,18.6c5.4,5.4,11.7,9.6,18.6,12.6c7.2,3.1,22.8,34.1,22.8,34.1s15.6-31,22.8-34.1c7-2.9,13.2-7.2,18.6-12.6
				c5.4-5.4,9.6-11.7,12.6-18.6c3.1-7.2,4.6-14.9,4.6-22.8s-1.6-15.6-4.6-22.8c-2.9-7-7.2-13.2-12.6-18.6S104.3,9.3,97.3,6.4
				C90.1,3.3,82.4,1.8,74.5,1.8L74.5,1.8z"/>
		</g>
	</g>
	<g>
		<g>
			<g>
				<path class="st1" d="M106.4,82.9c-0.3,0-0.5-0.2-0.5-0.5v-5.6c0-0.3,0.2-0.5,0.5-0.5c0.3,0,0.5,0.2,0.5,0.5v5.6
					C106.9,82.7,106.6,82.9,106.4,82.9z"/>
			</g>
		</g>
	</g>
	<g class="st2">
		<path class="st3" d="M57,37.9c0-2.1,1.7-3.8,3.8-3.8c0.3,0,0.6,0.1,0.9,0.1c1-1.1,2.4-1.7,3.9-1.7c3,0,5.4,2.4,5.4,5.4L57,37.9
			L57,37.9z"/>
	</g>
	<g class="st2">
		<path class="st3" d="M56.5,22.9c0-1.9,1.5-3.4,3.4-3.4c0.3,0,0.6,0,0.8,0.1c0.9-0.9,2.1-1.5,3.5-1.5c2.6,0,4.8,2.1,4.8,4.8
			L56.5,22.9L56.5,22.9z"/>
	</g>
	<g class="st2">
		<path class="st3" d="M102.7,26.8c0-1.5-1.2-2.7-2.7-2.7c-0.2,0-0.4,0-0.6,0.1c-0.7-0.8-1.7-1.2-2.8-1.2c-2.1,0-3.9,1.7-3.9,3.9
			L102.7,26.8L102.7,26.8z"/>
	</g>
	<g>
		<g>
			<g>
				<g>
					<path class="st1" d="M31.8,81.4c-0.2,0-0.4-0.2-0.4-0.4v-4.4c0-0.2,0.2-0.4,0.4-0.4c0.2,0,0.4,0.2,0.4,0.4v4.4
						C32.2,81.2,32,81.4,31.8,81.4z"/>
				</g>
			</g>
		</g>
	</g>
	<g>
		<path class="st3" d="M50.9,38c-0.4,0-0.9,0.1-1.3,0.2c-1.3-1.9-3.4-3.1-5.9-3.1c-2.4,0-4.6,1.2-5.9,3.1C37.4,38.1,37,38,36.6,38
			c-2.4,0-4.3,1.9-4.3,4.3h23C55.3,39.9,53.3,38,50.9,38z"/>
	</g>
	<g>
		<path class="st3" d="M115.8,43.3c-0.5,0-1,0.1-1.4,0.2c-1.4-2-3.8-3.4-6.4-3.4c-2.7,0-5,1.3-6.4,3.4c-0.4-0.1-0.9-0.2-1.4-0.2
			c-2.6,0-4.7,2.1-4.7,4.7h25.1C120.5,45.4,118.4,43.3,115.8,43.3z"/>
	</g>
	<g>
		<path class="st3" d="M60.5,26.5c0-2.8,2.3-5,5-5c0.4,0,0.8,0.1,1.2,0.2c1.3-1.4,3.2-2.3,5.3-2.3c4,0,7.2,3.2,7.2,7.2H60.5z"/>
	</g>
	<g>
		<path class="st4" d="M28.7,80.8V81h0c7.9,17.4,25.4,29.6,45.8,29.6c20.3,0,37.8-12,45.7-29.4L28.7,80.8z"/>
	</g>
	<g>
		<g>
			<g>
				<path class="st1" d="M116.7,84.1c-0.4,0-0.7-0.3-0.7-0.7V76c0-0.4,0.3-0.7,0.7-0.7c0.4,0,0.7,0.3,0.7,0.7v7.4
					C117.4,83.8,117,84.1,116.7,84.1z"/>
			</g>
		</g>
	</g>
	<g>
		<circle class="st5" cx="64.8" cy="106.4" r="0.8"/>
	</g>
	<g>
		<circle class="st6" cx="81.4" cy="76" r="0.8"/>
	</g>
	<g>
		<circle class="st7" cx="102.7" cy="66.6" r="0.8"/>
	</g>
	<g>
		<circle class="st5" cx="31.2" cy="82.4" r="0.8"/>
	</g>
	<g>
		<circle class="st5" cx="102.8" cy="91.6" r="0.8"/>
	</g>
	<g>
		<circle class="st1" cx="65.7" cy="86.5" r="0.8"/>
	</g>
	<g>
		<circle class="st5" cx="36.8" cy="88.4" r="0.9"/>
	</g>
	<g>
		<circle class="st7" cx="52.7" cy="96.9" r="0.8"/>
	</g>
	<g>
		<circle class="st6" cx="42.6" cy="85.6" r="0.8"/>
	</g>
	<g>
		<circle class="st5" cx="69.7" cy="78.7" r="0.8"/>
	</g>
	<g>
		<circle class="st5" cx="76.6" cy="93.8" r="0.8"/>
	</g>
	<g>
		<circle class="st5" cx="109.3" cy="84" r="0.8"/>
	</g>
	<g>
		<circle class="st5" cx="99" cy="101.2" r="0.8"/>
	</g>
	<g>
		<circle class="st1" cx="97.1" cy="80" r="0.9"/>
	</g>
	<g>
		<circle class="st5" cx="85.2" cy="101" r="0.8"/>
	</g>
</g>
<g>
	<circle class="st1" cx="39.9" cy="82.7" r="0.6"/>
</g>
<g>
	<path class="st8" d="M76.6,87.2H46.7c-3.5,0-6.4-2.9-6.4-6.4l0,0c0-3.5,2.9-6.4,6.4-6.4h29.9c3.5,0,6.4,2.9,6.4,6.4l0,0
		C83,84.4,80.1,87.2,76.6,87.2z"/>
	<polygon class="st9" points="54.2,53.2 54.2,53.1 54.2,53.1 	"/>
	<path class="st10" d="M74.5,44.5c0-1.2-1-2.1-2.1-2.1H59c-0.9,0-1.8,0.6-2,1.5l-1.9,6.2l-0.9,3h20.3V44.5z"/>
</g>
<rect x="55.2" y="54.1" class="st9" width="18.1" height="8.5"/>
<rect x="75.5" y="79.8" width="2.1" height="2.1"/>
<rect x="49.9" y="79.8" width="23.5" height="2.1"/>
<rect x="45.6" y="79.8" width="2.1" height="2.1"/>
<path d="M97.8,22.1L67.9,32.8H47.8v6.4h5l-2.6,8.5h-7.7c-1.8,0-3.2,1.4-3.2,3.2V68c0,1.8,1.4,3.2,3.2,3.2h5.7l-1.1,2.1h-0.4
	c-4.1,0-7.5,3.4-7.5,7.5c0,4.1,3.4,7.5,7.5,7.5h29.9c4.1,0,7.5-3.4,7.5-7.5c0-4.1-3.4-7.5-7.5-7.5h-0.4l-1.1-2.1h1.5
	c1.8,0,3.2-1.4,3.2-3.2V54.6l8.2-7.2l8.9-8.9v3.8l3,26.4L94.7,74v7.2l-8.5,3.2v3.9h9.9l8.2-4.7l1.1-15.6V22.1H97.8z M79.8,39.2h2.1
	v-4.6L96.9,29v1.9c-1.1,0.4-1.9,1.3-2.1,2.4l-11.3,8.2L79.8,43V39.2z M97.9,34.9c-0.6,0-1.1-0.5-1.1-1.1s0.5-1.1,1.1-1.1
	c0.6,0,1.1,0.5,1.1,1.1S98.5,34.9,97.9,34.9z M96.9,24.7v2l-16.2,6.1h-6.5L96.9,24.7z M49.9,34.9h29.9v2.1H49.9V34.9z M42.4,49.9
	h9.3L55,39.2h22.7v23.5h-2.1V44.5c0-1.8-1.4-3.2-3.2-3.2H59c-1.4,0-2.7,0.9-3.1,2.3l-2.7,9.2l0,9.8H41.4v-3.2h4.3v-2.1h-4.3v-2.1
	h4.3v-2.1h-4.3v-2.1C41.4,50.3,41.8,49.9,42.4,49.9z M73.4,52H55.6l2.3-7.8c0.1-0.5,0.5-0.8,1-0.8h13.4c0.6,0,1.1,0.5,1.1,1.1V52z
	 M55.2,54.1h18.1v8.5H55.2V54.1z M52,77.6v-2.1h2.1v2.1h2.1v-2.1h2.1v2.1h2.1v-2.1h2.1v2.1h2.1v-2.1H67v2.1h2.1v-2.1h2.1v2.1h2.1
	v-2.1h2.1v2.1h2.1v-2c0.7,0.1,1.3,0.4,1.9,0.8l-1.4,1.4l1.5,1.5l1.4-1.4c0.4,0.6,0.6,1.2,0.8,1.9h-2v2.1h2c-0.1,0.7-0.4,1.3-0.8,1.9
	l-1.4-1.4l-1.5,1.5l1.4,1.4c-0.6,0.4-1.2,0.6-1.9,0.8v-2h-2.1v2.1h-2.1V84h-2.1v2.1h-2.1V84H67v2.1h-2.1V84h-2.1v2.1h-2.1V84h-2.1
	v2.1h-2.1V84h-2.1v2.1H52V84h-2.1v2.1h-2.1V84h-2.1v2c-0.7-0.1-1.3-0.4-1.9-0.8l1.4-1.4l-1.5-1.5l-1.4,1.4c-0.4-0.6-0.6-1.2-0.8-1.9
	h2v-2.1h-2c0.1-0.7,0.4-1.3,0.8-1.9l1.4,1.4l1.5-1.5l-1.4-1.4c0.6-0.4,1.2-0.6,1.9-0.8v2h2.1v-2.1h2.1v2.1H52z M73.8,73.4H49.5
	l1.1-2.1h22.2L73.8,73.4z M76.6,69.1h-2.5H49.2h-6.8c-0.6,0-1.1-0.5-1.1-1.1v-3.2h36.3V68C77.7,68.6,77.2,69.1,76.6,69.1z
	 M86.6,45.9l-6.8,5.9v-6.5l4.7-1.9l10.8-7.8c0.2,0.3,0.5,0.6,0.8,0.8L86.6,45.9z M99,36.9c1.2-0.4,2.1-1.6,2.1-3s-0.9-2.6-2.1-3
	v-6.6h4.3l0,43.7l0,0.1H102l-3-25.7V36.9z M88.3,85.8l6.4-2.4v2.7h-6.4V85.8z M96.9,85.4V74.9l4.7-4.7h1.5l-0.9,12.2L96.9,85.4z"/>
<rect x="67" y="56.3" width="4.3" height="2.1"/>
<path class="st9" d="M42.4,49.9h9.3L55,39.1h22.7v23.6h-2.1V44.6c0-1.8-1.4-3.2-3.2-3.2H59c-1.4,0-2.7,0.9-3.1,2.3l-2.7,9.2l0,9.8
	H41.4v-3.2h4.3v-2.1h-4.3v-2.1h4.3v-2.1h-4.3V51C41.4,50.4,41.8,49.9,42.4,49.9z"/>
<rect x="49.9" y="34.9" class="st9" width="29.9" height="2.1"/>
<path class="st9" d="M76.6,69.1H74H49.2h-6.8c-0.6,0-1.1-0.5-1.1-1.1v-3.2h36.3V68C77.6,68.6,77.2,69.1,76.6,69.1z"/>
<polygon class="st9" points="96.9,24.7 96.9,26.7 80.7,32.8 74.2,32.8 "/>
<path class="st9" d="M86.6,45.9l-6.8,5.9v-6.5l4.7-1.9l10.8-7.8c0.2,0.3,0.5,0.6,0.8,0.8L86.6,45.9z"/>
<path class="st9" d="M99,36.9c1.2-0.4,2.1-1.6,2.1-3s-0.9-2.6-2.1-3v-6.6h4.3l0,43.7l0,0.1H102l-3-25.7V36.9z"/>
<polygon class="st8" points="88.3,85.8 94.7,83.4 94.7,86.1 88.3,86.1 "/>
<polygon class="st8" points="96.8,85.4 96.8,74.8 101.6,70.1 103.1,70.1 102.2,82.3 "/>
<circle class="st9" cx="97.9" cy="33.8" r="1.1"/>
</svg>
