<?xml version="1.0" encoding="utf-8"?>
<!-- Generator: Adobe Illustrator 23.0.3, SVG Export Plug-In . SVG Version: 6.00 Build 0)  -->
<svg version="1.1" id="Capa_1" xmlns="http://www.w3.org/2000/svg" xmlns:xlink="http://www.w3.org/1999/xlink" x="0px" y="0px"
	 viewBox="0 0 100 100" style="enable-background:new 0 0 100 100;" xml:space="preserve">
<style type="text/css">
	.st0{fill:#9AF4EF;}
	.st1{opacity:0.3;}
	.st2{fill:#FFFFF4;}
	.st3{opacity:0.4;}
	.st4{fill:#674447;}
	.st5{opacity:0.6;}
	.st6{fill:#FFFFFF;}
	.st7{fill:#DDD76C;}
	.st8{fill:#EAE781;}
	.st9{fill:#E2D240;}
	.st10{fill:#D3BD20;}
</style>
<g>
	<g>
		<g>
			<path class="st0" d="M74.5,114.8c-14.5,0-28.2-5.7-38.5-15.9S20.1,74.9,20.1,60.4S25.7,32.2,36,21.9S60,6,74.5,6
				c30,0,54.4,24.4,54.4,54.4C128.9,90.4,104.5,114.8,74.5,114.8z"/>
			<path d="M74.5,10.2c27.7,0,50.2,22.5,50.2,50.2s-22.5,50.2-50.2,50.2S24.3,88.1,24.3,60.4S46.8,10.2,74.5,10.2 M74.5,1.8
				c-7.9,0-15.6,1.6-22.8,4.6C44.7,9.3,38.4,13.6,33,19s-9.6,11.7-12.6,18.6c-3,7.2-4.6,14.9-4.6,22.8s1.6,15.6,4.6,22.8
				c2.9,7,7.2,13.2,12.6,18.6c5.4,5.4,11.7,9.6,18.6,12.6c7.2,3.1,22.8,34.1,22.8,34.1s15.6-31,22.8-34.1c7-2.9,13.2-7.2,18.6-12.6
				c5.4-5.4,9.6-11.7,12.6-18.6c3.1-7.2,4.6-14.9,4.6-22.8s-1.6-15.6-4.6-22.8c-2.9-7-7.2-13.2-12.6-18.6S104.3,9.3,97.3,6.4
				C90.1,3.3,82.4,1.8,74.5,1.8L74.5,1.8z"/>
		</g>
	</g>
	<g class="st1">
		<path class="st2" d="M104.2,19.9c-22.2,5.9-38.6,26.2-38.6,50.3c0,15.8,7.1,30,18.2,39.5c23.3-4.4,40.9-24.8,40.9-49.3
			C124.7,43.7,116.6,29,104.2,19.9z"/>
	</g>
	<g class="st3">
		<path class="st2" d="M94.6,70.2c0,11.1,7.8,20.3,18.3,22.5c7.4-8.7,11.8-20,11.8-32.3c0-4.3-0.6-8.5-1.6-12.5
			c-1.8-0.4-3.6-0.7-5.5-0.7C104.9,47.2,94.6,57.5,94.6,70.2z"/>
	</g>
	<g>
		<g>
			<g>
				<path class="st4" d="M106.4,62.9c-0.3,0-0.5-0.2-0.5-0.5v-5.6c0-0.3,0.2-0.5,0.5-0.5c0.3,0,0.5,0.2,0.5,0.5v5.6
					C106.9,62.7,106.6,62.9,106.4,62.9z"/>
			</g>
		</g>
	</g>
	<g class="st5">
		<path class="st6" d="M57,37.9c0-2.1,1.7-3.8,3.8-3.8c0.3,0,0.6,0.1,0.9,0.1c1-1.1,2.4-1.7,3.9-1.7c3,0,5.4,2.4,5.4,5.4L57,37.9
			L57,37.9z"/>
	</g>
	<g class="st5">
		<path class="st6" d="M56.5,22.9c0-1.9,1.5-3.4,3.4-3.4c0.3,0,0.6,0,0.8,0.1c0.9-0.9,2.1-1.5,3.5-1.5c2.6,0,4.8,2.1,4.8,4.8
			L56.5,22.9L56.5,22.9z"/>
	</g>
	<g class="st5">
		<path class="st6" d="M102.7,26.8c0-1.5-1.2-2.7-2.7-2.7c-0.2,0-0.4,0-0.6,0.1c-0.7-0.8-1.7-1.2-2.8-1.2c-2.1,0-3.9,1.7-3.9,3.9
			L102.7,26.8L102.7,26.8z"/>
	</g>
	<g>
		<path class="st7" d="M45.3,95.2l46.5-24.9l-1.2-2.5c-11.2,0-30.8-11.5-66.3-7.4c0,12.5,4.6,23.9,12.2,32.7
			C41.2,94.2,45.3,95.2,45.3,95.2z"/>
		<g>
			<g>
				<g>
					<path class="st4" d="M31.8,61.4c-0.2,0-0.4-0.2-0.4-0.4v-4.4c0-0.2,0.2-0.4,0.4-0.4c0.2,0,0.4,0.2,0.4,0.4v4.4
						C32.2,61.2,32,61.4,31.8,61.4z"/>
				</g>
			</g>
		</g>
	</g>
	<g>
		<path class="st8" d="M90.6,67.8c-10.3,0-27.6-9.6-57.8-8.1c26.8,0,43.3,12,51.7,12l2.4-0.9l3.8-2.9L90.6,67.8z"/>
	</g>
	<g>
		<path class="st6" d="M59.6,33.6c-0.4,0-0.9,0.1-1.3,0.2c-1.3-1.9-3.4-3.1-5.9-3.1c-2.4,0-4.6,1.2-5.9,3.1
			c-0.4-0.1-0.8-0.2-1.3-0.2c-2.4,0-4.3,1.9-4.3,4.3h23C64,35.6,62,33.6,59.6,33.6z"/>
	</g>
	<g>
		<path class="st6" d="M93.3,29.6c-0.5,0-1,0.1-1.4,0.2c-1.4-2-3.8-3.4-6.4-3.4c-2.7,0-5,1.3-6.4,3.4c-0.4-0.1-0.9-0.2-1.4-0.2
			c-2.6,0-4.7,2.1-4.7,4.7H98C98,31.8,95.9,29.6,93.3,29.6z"/>
	</g>
	<g>
		<path class="st6" d="M60.5,26.5c0-2.8,2.3-5,5-5c0.4,0,0.8,0.1,1.2,0.2c1.3-1.4,3.2-2.3,5.3-2.3c4,0,7.2,3.2,7.2,7.2H60.5z"/>
	</g>
	<g>
		<path class="st9" d="M28.7,81c7.9,17.4,25.4,29.6,45.8,29.6c27.7,0,50.2-22.5,50.2-50.2c0-0.5,0-1,0-1.6c-31,0.1-45.1,22-95.9,22
			L28.7,81L28.7,81z"/>
	</g>
	<g>
		<g>
			<g>
				<path class="st4" d="M92.1,68.2c-0.4,0-0.7-0.3-0.7-0.7v-7.4c0-0.4,0.3-0.7,0.7-0.7c0.4,0,0.7,0.3,0.7,0.7v7.4
					C92.8,67.9,92.5,68.2,92.1,68.2z"/>
			</g>
		</g>
	</g>
	<g>
		<path class="st10" d="M124.6,63.7C102.5,63.8,70.9,94.3,40,96.8c9,8.5,21.1,13.8,34.5,13.8C101.1,110.6,122.9,89.9,124.6,63.7z"/>
	</g>
	<g>
		<circle class="st7" cx="64.8" cy="106.4" r="0.8"/>
	</g>
	<g>
		<circle class="st8" cx="81.4" cy="76" r="0.8"/>
	</g>
	<g>
		<circle class="st10" cx="102.7" cy="66.6" r="0.8"/>
	</g>
	<g>
		<circle class="st7" cx="114.1" cy="65.3" r="0.8"/>
	</g>
	<g>
		<circle class="st4" cx="68.4" cy="93.7" r="0.8"/>
	</g>
	<g>
		<circle class="st4" cx="65.7" cy="86.5" r="0.8"/>
	</g>
	<g>
		<circle class="st4" cx="36.2" cy="89.3" r="0.8"/>
	</g>
	<g>
		<circle class="st4" cx="52.6" cy="102.1" r="0.9"/>
	</g>
	<g>
		<circle class="st10" cx="62.6" cy="72.6" r="0.8"/>
	</g>
	<g>
		<circle class="st8" cx="42.6" cy="78.7" r="0.8"/>
	</g>
	<g>
		<circle class="st7" cx="69.7" cy="64.8" r="0.8"/>
	</g>
	<g>
		<circle class="st7" cx="112.2" cy="77" r="0.8"/>
	</g>
	<g>
		<circle class="st7" cx="84.8" cy="102.2" r="0.8"/>
	</g>
	<g>
		<circle class="st4" cx="99.3" cy="99.1" r="0.8"/>
	</g>
	<g>
		<circle class="st4" cx="97.1" cy="80" r="0.9"/>
	</g>
	<g>
		<circle class="st7" cx="84.3" cy="68.8" r="0.8"/>
	</g>
</g>
<g>
	<circle class="st4" cx="18" cy="67" r="0.6"/>
</g>
<g>
	<circle class="st4" cx="40" cy="72.4" r="0.6"/>
</g>
</svg>
